<svg width="22" height="39" viewBox="0 0 22 39" fill="none" xmlns="http://www.w3.org/2000/svg">
<mask id="path-1-inside-1_356_313" fill="white">
<path d="M19.9179 38.4414C20.2539 38.4414 20.5977 38.3124 20.8555 38.0619C21.3711 37.5609 21.3711 36.7412 20.8555 36.2402L3.20703 19.0937L20.5977 2.19769C21.1133 1.69673 21.1133 0.876976 20.5977 0.376015C20.082 -0.124947 19.2383 -0.124947 18.7227 0.376015L0.386719 18.1829C-0.128906 18.6838 -0.128906 19.5036 0.386719 20.0045L18.9727 38.0619C19.2383 38.32 19.5742 38.4414 19.9179 38.4414Z"/>
</mask>
<path d="M19.9179 38.4414C20.2539 38.4414 20.5977 38.3124 20.8555 38.0619C21.3711 37.5609 21.3711 36.7412 20.8555 36.2402L3.20703 19.0937L20.5977 2.19769C21.1133 1.69673 21.1133 0.876976 20.5977 0.376015C20.082 -0.124947 19.2383 -0.124947 18.7227 0.376015L0.386719 18.1829C-0.128906 18.6838 -0.128906 19.5036 0.386719 20.0045L18.9727 38.0619C19.2383 38.32 19.5742 38.4414 19.9179 38.4414Z" fill="white"/>
<path d="M20.8555 36.2402L18.765 38.3919V38.3919L20.8555 36.2402ZM3.20703 19.0937L1.11653 21.2454L-1.09816 19.0937L1.11653 16.942L3.20703 19.0937ZM20.5977 2.19769L22.6882 4.34939H22.6882L20.5977 2.19769ZM18.7227 0.376015L20.8132 2.52771L20.8127 2.52816L18.7227 0.376015ZM0.386719 18.1829L-1.70378 16.0312L-1.70333 16.0307L0.386719 18.1829ZM0.386719 20.0045L2.47722 17.8529L0.386719 20.0045ZM18.9727 38.0619L16.8822 40.2136L16.8822 40.2136L18.9727 38.0619ZM19.9179 38.4414V35.4414C19.5066 35.4414 19.0906 35.5939 18.765 35.9102L20.8555 38.0619L22.946 40.2136C22.1047 41.0309 21.0011 41.4414 19.9179 41.4414V38.4414ZM20.8555 38.0619L18.765 35.9102C18.0679 36.5874 18.0679 37.7147 18.765 38.3919L20.8555 36.2402L22.946 34.0885C24.6743 35.7677 24.6743 38.5345 22.946 40.2136L20.8555 38.0619ZM20.8555 36.2402L18.765 38.3919L1.11653 21.2454L3.20703 19.0937L5.29753 16.942L22.946 34.0885L20.8555 36.2402ZM3.20703 19.0937L1.11653 16.942L18.5072 0.04599L20.5977 2.19769L22.6882 4.34939L5.29753 21.2454L3.20703 19.0937ZM20.5977 2.19769L18.5072 0.04599C17.8101 0.723206 17.8101 1.8505 18.5072 2.52771L20.5977 0.376015L22.6882 -1.77568C24.4164 -0.0965462 24.4164 2.67025 22.6882 4.34939L20.5977 2.19769ZM20.5977 0.376015L18.5072 2.52771C19.1557 3.15782 20.1646 3.15782 20.8132 2.52771L18.7227 0.376015L16.6322 -1.77568C18.312 -3.40771 21.0084 -3.40771 22.6882 -1.77568L20.5977 0.376015ZM18.7227 0.376015L20.8127 2.52816L2.47676 20.335L0.386719 18.1829L-1.70333 16.0307L16.6326 -1.77613L18.7227 0.376015ZM0.386719 18.1829L2.47722 20.3346C3.17426 19.6574 3.17426 18.5301 2.47722 17.8529L0.386719 20.0045L-1.70378 22.1562C-3.43207 20.4771 -3.43207 17.7103 -1.70378 16.0312L0.386719 18.1829ZM0.386719 20.0045L2.47722 17.8529L21.0632 35.9102L18.9727 38.0619L16.8822 40.2136L-1.70378 22.1562L0.386719 20.0045ZM18.9727 38.0619L21.0632 35.9102C20.73 35.5865 20.2989 35.4414 19.9179 35.4414V38.4414V41.4414C18.8495 41.4414 17.7466 41.0534 16.8822 40.2136L18.9727 38.0619Z" fill="#F7F4F0" mask="url(#path-1-inside-1_356_313)"/>
</svg>
