<svg width="22" height="39" viewBox="0 0 22 39" fill="none" xmlns="http://www.w3.org/2000/svg">
<mask id="path-1-inside-1_356_313" fill="white">
<path d="M1.32426 38.4414C0.98832 38.4414 0.644531 38.3124 0.386719 38.0619C-0.128906 37.5609 -0.128906 36.7412 0.386719 36.2402L18.0352 19.0937L0.644531 2.19769C0.128906 1.69673 0.128906 0.876976 0.644531 0.376015C1.16016 -0.124947 2.00391 -0.124947 2.51953 0.376015L20.8555 18.1829C21.3711 18.6838 21.3711 19.5036 20.8555 20.0045L2.26953 38.0619C2.00391 38.32 1.66797 38.4414 1.32426 38.4414Z"/>
</mask>
<path d="M1.32426 38.4414C0.98832 38.4414 0.644531 38.3124 0.386719 38.0619C-0.128906 37.5609 -0.128906 36.7412 0.386719 36.2402L18.0352 19.0937L0.644531 2.19769C0.128906 1.69673 0.128906 0.876976 0.644531 0.376015C1.16016 -0.124947 2.00391 -0.124947 2.51953 0.376015L20.8555 18.1829C21.3711 18.6838 21.3711 19.5036 20.8555 20.0045L2.26953 38.0619C2.00391 38.32 1.66797 38.4414 1.32426 38.4414Z" fill="white"/>
<path d="M0.386719 36.2402L2.47722 38.3919V38.3919L0.386719 36.2402ZM18.0352 19.0937L20.1257 21.2454L22.3403 19.0937L20.1257 16.942L18.0352 19.0937ZM0.644531 2.19769L-1.44597 4.34939H-1.44597L0.644531 2.19769ZM2.51953 0.376015L0.429029 2.52771L0.429488 2.52816L2.51953 0.376015ZM20.8555 18.1829L22.946 16.0312L22.9455 16.0307L20.8555 18.1829ZM20.8555 20.0045L18.765 17.8529L20.8555 20.0045ZM2.26953 38.0619L4.36003 40.2136L4.36003 40.2136L2.26953 38.0619ZM1.32426 38.4414L1.32426 35.4414C1.7356 35.4414 2.15162 35.5939 2.47722 35.9102L0.386719 38.0619L-1.70378 40.2136C-0.862556 41.0309 0.241039 41.4414 1.32426 41.4414L1.32426 38.4414ZM0.386719 38.0619L2.47722 35.9102C3.17426 36.5874 3.17426 37.7147 2.47722 38.3919L0.386719 36.2402L-1.70378 34.0885C-3.43207 35.7677 -3.43207 38.5345 -1.70378 40.2136L0.386719 38.0619ZM0.386719 36.2402L2.47722 38.3919L20.1257 21.2454L18.0352 19.0937L15.9447 16.942L-1.70378 34.0885L0.386719 36.2402ZM18.0352 19.0937L20.1257 16.942L2.73503 0.04599L0.644531 2.19769L-1.44597 4.34939L15.9447 21.2454L18.0352 19.0937ZM0.644531 2.19769L2.73503 0.04599C3.43207 0.723206 3.43207 1.8505 2.73503 2.52771L0.644531 0.376015L-1.44597 -1.77568C-3.17426 -0.0965462 -3.17426 2.67025 -1.44597 4.34939L0.644531 2.19769ZM0.644531 0.376015L2.73503 2.52771C2.08648 3.15782 1.07758 3.15782 0.42903 2.52771L2.51953 0.376015L4.61003 -1.77568C2.93023 -3.40771 0.233834 -3.40771 -1.44597 -1.77568L0.644531 0.376015ZM2.51953 0.376015L0.429488 2.52816L18.7654 20.335L20.8555 18.1829L22.9455 16.0307L4.60957 -1.77613L2.51953 0.376015ZM20.8555 18.1829L18.765 20.3346C18.0679 19.6574 18.0679 18.5301 18.765 17.8529L20.8555 20.0045L22.946 22.1562C24.6743 20.4771 24.6743 17.7103 22.946 16.0312L20.8555 18.1829ZM20.8555 20.0045L18.765 17.8529L0.17903 35.9102L2.26953 38.0619L4.36003 40.2136L22.946 22.1562L20.8555 20.0045ZM2.26953 38.0619L0.17903 35.9102C0.512203 35.5865 0.943244 35.4414 1.32426 35.4414L1.32426 38.4414L1.32426 41.4414C2.39269 41.4414 3.49561 41.0534 4.36003 40.2136L2.26953 38.0619Z" fill="#F7F4F0" mask="url(#path-1-inside-1_356_313)"/>
</svg>
