<svg width="23" height="21" viewBox="0 0 23 21" fill="none" xmlns="http://www.w3.org/2000/svg">
<path d="M1 1H4.79634L7.64359 12.7686C7.73233 13.2038 7.97088 13.5942 8.31771 13.8716C8.66454 14.1491 9.09769 14.2961 9.54176 14.2872H18.0835C18.5276 14.2961 18.9607 14.1491 19.3076 13.8716C19.6544 13.5942 19.8929 13.2038 19.9817 12.7686L21.8799 4.79634H5.74542" stroke="white" stroke-width="2" stroke-linecap="round" stroke-linejoin="round"/>
<path d="M8.59375 17.584C9.39373 17.5842 10.042 18.2332 10.042 19.0332C10.0418 19.833 9.3936 20.4812 8.59375 20.4814C7.79372 20.4814 7.14475 19.8332 7.14453 19.0332C7.14453 18.233 7.79359 17.584 8.59375 17.584Z" stroke="white" stroke-linecap="round" stroke-linejoin="round"/>
<path d="M19.0332 17.584C19.8332 17.5842 20.4814 18.2332 20.4814 19.0332C20.4812 19.833 19.833 20.4812 19.0332 20.4814C18.2332 20.4814 17.5842 19.8332 17.584 19.0332C17.584 18.233 18.233 17.584 19.0332 17.584Z" stroke="white" stroke-linecap="round" stroke-linejoin="round"/>
</svg>
