<svg width="40" height="40" viewBox="0 0 40 40" fill="none" xmlns="http://www.w3.org/2000/svg">
<path d="M36.8521 10.7798L24.3521 3.90479C24.1675 3.80324 23.9603 3.75 23.7496 3.75C23.5389 3.75 23.3317 3.80324 23.1471 3.90479L10.6471 10.7798C10.4511 10.8877 10.2877 11.0462 10.1739 11.2388C10.06 11.4314 10 11.6511 10 11.8748C10 12.0985 10.06 12.3181 10.1739 12.5107C10.2877 12.7034 10.4511 12.8619 10.6471 12.9698L22.4996 19.4885V32.8873L18.7046 30.7998L17.4996 32.9885L23.1471 36.0948C23.3317 36.1963 23.5389 36.2496 23.7496 36.2496C23.9603 36.2496 24.1675 36.1963 24.3521 36.0948L36.8521 29.2198C37.0482 29.1119 37.2117 28.9534 37.3256 28.7608C37.4395 28.5682 37.4996 28.3485 37.4996 28.1248V11.8748C37.4996 11.651 37.4395 11.4314 37.3256 11.2388C37.2117 11.0461 37.0482 10.8876 36.8521 10.7798ZM23.7496 6.42729L33.6559 11.8748L23.7496 17.3223L13.8434 11.8748L23.7496 6.42729ZM34.9996 27.386L24.9996 32.886V19.4873L34.9996 13.9873V27.386Z" fill="#1B3BAD"/>
<path d="M12.5 20H2.5V17.5H12.5V20ZM15 30H5V27.5H15V30ZM17.5 25H7.5V22.5H17.5V25Z" fill="#1B3BAD"/>
</svg>
