<svg width="20" height="27" viewBox="0 0 20 27" fill="none" xmlns="http://www.w3.org/2000/svg">
<mask id="path-1-inside-1_356_261" fill="white">
<path d="M18.4615 10C18.4615 12.7692 17.1308 15.2308 15.0708 16.7738L15.9938 18.0046C17.2384 17.0742 18.2487 15.866 18.9442 14.4764C19.6397 13.0868 20.0012 11.554 20 10H18.4615ZM10 1.53846C12.2441 1.53846 14.3964 2.42994 15.9832 4.01679C17.5701 5.60363 18.4615 7.75586 18.4615 10H20C20 7.34783 18.9464 4.80429 17.0711 2.92893C15.1957 1.05357 12.6522 0 10 0V1.53846ZM1.53846 10C1.53846 7.75586 2.42994 5.60363 4.01679 4.01679C5.60364 2.42994 7.75586 1.53846 10 1.53846V0C7.34784 0 4.8043 1.05357 2.92893 2.92893C1.05357 4.80429 2.97336e-06 7.34783 2.97336e-06 10H1.53846ZM4.92923 16.7738C3.8757 15.9867 3.02054 14.9644 2.43186 13.7884C1.84319 12.6124 1.53726 11.3151 1.53846 10H2.97336e-06C-0.00119618 11.554 0.360334 13.0868 1.05582 14.4764C1.75131 15.866 2.76155 17.0742 4.00616 18.0046L4.92923 16.7738ZM7.68769 25.0046C7.6407 22.7549 7.17588 20.5336 6.31692 18.4538L4.89539 19.04C5.68 20.9385 6.10769 22.9738 6.15077 25.0369L7.68769 25.0046ZM12.4077 24.8585C11.6601 25.2322 10.8358 25.4267 10 25.4267C9.16421 25.4267 8.33989 25.2322 7.59231 24.8585L6.90462 26.2354C7.86574 26.7158 8.92549 26.9659 10 26.9659C11.0745 26.9659 12.1343 26.7158 13.0954 26.2354L12.4077 24.8585ZM13.6846 18.4538C12.8249 20.534 12.3596 22.7559 12.3123 25.0061L13.8508 25.0369C13.8923 22.9738 14.32 20.94 15.1046 19.0415L13.6846 18.4538ZM13.0954 26.2354C13.3183 26.1233 13.5064 25.9524 13.6392 25.7411C13.7721 25.5299 13.8447 25.2864 13.8492 25.0369L12.3108 25.0061C12.3118 24.975 12.3213 24.9447 12.3384 24.9186C12.3555 24.8926 12.3795 24.8718 12.4077 24.8585L13.0954 26.2354ZM6.15077 25.0369C6.15529 25.2864 6.2279 25.5299 6.36076 25.7411C6.49363 25.9524 6.68168 26.1233 6.90462 26.2354L7.59231 24.8585C7.61999 24.8719 7.64349 24.8925 7.66029 24.9183C7.6771 24.944 7.68657 24.9739 7.68769 25.0046L6.15077 25.0369ZM4.00616 18.0061C4.49539 18.3723 4.60616 18.4631 4.65231 18.5231L5.86769 17.58C5.66 17.3123 5.32462 17.0723 4.92923 16.7738L4.00616 18.0061ZM6.31692 18.4538C6.18308 18.1308 6.07077 17.8431 5.86769 17.58L4.65231 18.5231C4.70154 18.5877 4.73539 18.6538 4.89539 19.04L6.31692 18.4538ZM15.0708 16.7754C14.6754 17.0708 14.34 17.3138 14.1323 17.58L15.3477 18.5231C15.3938 18.4631 15.5031 18.3723 15.9938 18.0046L15.0708 16.7754ZM15.1046 19.0415C15.2646 18.6554 15.2985 18.5877 15.3492 18.5231L14.1338 17.58C13.9292 17.8431 13.8169 18.1308 13.6831 18.4538L15.1046 19.0415Z"/>
</mask>
<path d="M18.4615 10C18.4615 12.7692 17.1308 15.2308 15.0708 16.7738L15.9938 18.0046C17.2384 17.0742 18.2487 15.866 18.9442 14.4764C19.6397 13.0868 20.0012 11.554 20 10H18.4615ZM10 1.53846C12.2441 1.53846 14.3964 2.42994 15.9832 4.01679C17.5701 5.60363 18.4615 7.75586 18.4615 10H20C20 7.34783 18.9464 4.80429 17.0711 2.92893C15.1957 1.05357 12.6522 0 10 0V1.53846ZM1.53846 10C1.53846 7.75586 2.42994 5.60363 4.01679 4.01679C5.60364 2.42994 7.75586 1.53846 10 1.53846V0C7.34784 0 4.8043 1.05357 2.92893 2.92893C1.05357 4.80429 2.97336e-06 7.34783 2.97336e-06 10H1.53846ZM4.92923 16.7738C3.8757 15.9867 3.02054 14.9644 2.43186 13.7884C1.84319 12.6124 1.53726 11.3151 1.53846 10H2.97336e-06C-0.00119618 11.554 0.360334 13.0868 1.05582 14.4764C1.75131 15.866 2.76155 17.0742 4.00616 18.0046L4.92923 16.7738ZM7.68769 25.0046C7.6407 22.7549 7.17588 20.5336 6.31692 18.4538L4.89539 19.04C5.68 20.9385 6.10769 22.9738 6.15077 25.0369L7.68769 25.0046ZM12.4077 24.8585C11.6601 25.2322 10.8358 25.4267 10 25.4267C9.16421 25.4267 8.33989 25.2322 7.59231 24.8585L6.90462 26.2354C7.86574 26.7158 8.92549 26.9659 10 26.9659C11.0745 26.9659 12.1343 26.7158 13.0954 26.2354L12.4077 24.8585ZM13.6846 18.4538C12.8249 20.534 12.3596 22.7559 12.3123 25.0061L13.8508 25.0369C13.8923 22.9738 14.32 20.94 15.1046 19.0415L13.6846 18.4538ZM13.0954 26.2354C13.3183 26.1233 13.5064 25.9524 13.6392 25.7411C13.7721 25.5299 13.8447 25.2864 13.8492 25.0369L12.3108 25.0061C12.3118 24.975 12.3213 24.9447 12.3384 24.9186C12.3555 24.8926 12.3795 24.8718 12.4077 24.8585L13.0954 26.2354ZM6.15077 25.0369C6.15529 25.2864 6.2279 25.5299 6.36076 25.7411C6.49363 25.9524 6.68168 26.1233 6.90462 26.2354L7.59231 24.8585C7.61999 24.8719 7.64349 24.8925 7.66029 24.9183C7.6771 24.944 7.68657 24.9739 7.68769 25.0046L6.15077 25.0369ZM4.00616 18.0061C4.49539 18.3723 4.60616 18.4631 4.65231 18.5231L5.86769 17.58C5.66 17.3123 5.32462 17.0723 4.92923 16.7738L4.00616 18.0061ZM6.31692 18.4538C6.18308 18.1308 6.07077 17.8431 5.86769 17.58L4.65231 18.5231C4.70154 18.5877 4.73539 18.6538 4.89539 19.04L6.31692 18.4538ZM15.0708 16.7754C14.6754 17.0708 14.34 17.3138 14.1323 17.58L15.3477 18.5231C15.3938 18.4631 15.5031 18.3723 15.9938 18.0046L15.0708 16.7754ZM15.1046 19.0415C15.2646 18.6554 15.2985 18.5877 15.3492 18.5231L14.1338 17.58C13.9292 17.8431 13.8169 18.1308 13.6831 18.4538L15.1046 19.0415Z" fill="#EDBA29"/>
<path d="M6.90462 26.2354L5.04039 25.3053L8.76842 27.1662L6.90462 26.2354ZM4.89539 19.04L4.10121 17.114L5.68778 20.9668L4.89539 19.04ZM7.24769 25.5477L5.38347 24.6177L5.04039 25.3053L6.90462 26.2354L8.76884 27.1654L9.11191 26.4777L7.24769 25.5477ZM5.60616 18.7477L4.81376 16.8209L4.10299 17.1132L4.89539 19.04L5.68778 20.9668L6.39855 20.6744L5.60616 18.7477ZM5.25846 18.0523L3.9826 16.4054L3.37491 16.8761L4.65077 18.5231L5.92663 20.17L6.53433 19.6993L5.25846 18.0523ZM14.7415 18.0523L13.4657 19.6993L14.0734 20.17L15.3492 18.5231L16.6251 16.8761L16.0174 16.4054L14.7415 18.0523ZM20 10V7.91666H18.4615V10V12.0833H20V10ZM10 0H7.91667V1.53846H10H12.0833V0H10ZM2.97336e-06 10V12.0833H1.53846V10V7.91666H2.97336e-06V10ZM6.31692 18.4538L5.52275 16.5278L4.10121 17.114L4.89539 19.04L5.68956 20.966L7.1111 20.3799L6.31692 18.4538ZM6.15077 25.0369L6.19455 27.1198L7.73148 27.0875L7.68769 25.0046L7.64391 22.9217L6.10699 22.954L6.15077 25.0369ZM7.59231 24.8585L5.7285 23.9276L5.04081 25.3045L6.90462 26.2354L8.76842 27.1662L9.45611 25.7893L7.59231 24.8585ZM13.0954 26.2354L14.9592 25.3045L14.2715 23.9276L12.4077 24.8585L10.5439 25.7893L11.2316 27.1662L13.0954 26.2354ZM4.65231 18.5231L5.92948 20.169L7.14486 19.2259L5.86769 17.58L4.59053 15.9341L3.37514 16.8771L4.65231 18.5231ZM6.90462 26.2354L5.03264 29.9579L5.04165 29.9624L6.90462 26.2354ZM4.89539 19.04L8.74614 17.4485L8.74471 17.4451L4.89539 19.04ZM15.3492 18.5231L18.6256 21.0973L21.2155 17.8011L17.9036 15.2312L15.3492 18.5231ZM15.0708 16.7738L12.5728 13.439L9.23594 15.9385L11.7374 19.2738L15.0708 16.7738ZM20 10H15.8333L15.8333 10.0032L20 10ZM10 1.53846V-2.62821V1.53846ZM10 0V-4.16667V0ZM1.53846 10L5.70513 10.0038V10H1.53846ZM2.97336e-06 10L4.16667 10.0032V10H2.97336e-06ZM4.92923 16.7738L7.43957 13.4483L7.43138 13.4421L7.42316 13.436L4.92923 16.7738ZM4.00616 18.0046L1.51129 21.3418L4.84334 23.8328L7.33949 20.5046L4.00616 18.0046ZM7.68769 25.0046L3.5238 25.1565L11.8535 24.9176L7.68769 25.0046ZM6.31692 18.4538L10.1681 16.8633L10.1663 16.8591L6.31692 18.4538ZM6.15077 25.0369L10.3168 24.9614L10.3165 24.9499L6.15077 25.0369ZM12.4077 24.8585L14.2708 28.5854L10.6295 21.0903L12.4077 24.8585ZM7.59231 24.8585L9.40772 21.1081L5.72921 28.5854L7.59231 24.8585ZM13.0954 26.2354L14.9584 29.9624L14.9674 29.9579L13.0954 26.2354ZM13.6846 18.4538L15.278 14.6039L11.4261 13.0097L9.83384 16.8624L13.6846 18.4538ZM12.3123 25.0061L8.14656 24.9186L8.05893 29.0886L12.229 29.172L12.3123 25.0061ZM13.8508 25.0369L13.7675 29.2027L17.9327 29.2861L18.0166 25.1208L13.8508 25.0369ZM13.8492 25.0369L18.0152 25.1124L18.0905 20.9542L13.9325 20.8711L13.8492 25.0369ZM12.3108 25.0061L8.14619 24.8743L8.01284 29.0877L12.2274 29.172L12.3108 25.0061ZM4.00616 18.0061L0.671324 15.5081L-1.82769 18.8443L1.50951 21.342L4.00616 18.0061ZM4.65231 18.5231L7.96661 15.9979L7.96078 15.9902L7.95491 15.9826L4.65231 18.5231ZM5.86769 17.58L9.166 15.0339L9.15971 15.0258L5.86769 17.58ZM15.0708 16.7754L18.4026 14.2734L15.9068 10.9498L12.577 13.4374L15.0708 16.7754ZM14.1323 17.58L10.8474 15.0167L8.27706 18.3105L11.578 20.8719L14.1323 17.58ZM15.3477 18.5231L12.7934 21.815L16.0991 24.3801L18.6503 21.0635L15.3477 18.5231ZM14.1338 17.58L16.6882 14.2881L13.4 11.7367L10.8449 15.0219L14.1338 17.58ZM13.6831 18.4538L9.83368 16.8591L8.23775 20.7113L12.0912 22.3044L13.6831 18.4538ZM18.4615 10H14.2949C14.2949 11.4036 13.6258 12.6502 12.5728 13.439L15.0708 16.7738L17.5688 20.1087C20.6357 17.8113 22.6282 14.1349 22.6282 10H18.4615ZM15.0708 16.7738L11.7374 19.2738L12.6605 20.5046L15.9938 18.0046L19.3272 15.5046L18.4041 14.2738L15.0708 16.7738ZM15.9938 18.0046L18.4887 21.3418C20.2527 20.023 21.6845 18.3108 22.6702 16.3412L18.9442 14.4764L15.2181 12.6116C14.8129 13.4213 14.2242 14.1253 13.499 14.6674L15.9938 18.0046ZM18.9442 14.4764L22.6702 16.3412C23.656 14.3717 24.1684 12.1992 24.1667 9.99678L20 10L15.8333 10.0032C15.834 10.9087 15.6234 11.8018 15.2181 12.6116L18.9442 14.4764ZM10 1.53846V5.70513C11.1391 5.70513 12.2315 6.15762 13.0369 6.96307L15.9832 4.01679L18.9295 1.07051C16.5612 -1.29774 13.3492 -2.62821 10 -2.62821V1.53846ZM15.9832 4.01679L13.0369 6.96307C13.8424 7.76851 14.2949 8.86093 14.2949 10H18.4615H22.6282C22.6282 6.65079 21.2977 3.43876 18.9295 1.07051L15.9832 4.01679ZM20 10H24.1667C24.1667 6.24276 22.6741 2.63942 20.0173 -0.0173471L17.0711 2.92893L14.1248 5.87521C15.2187 6.96917 15.8333 8.4529 15.8333 10H20ZM17.0711 2.92893L20.0173 -0.0173471C17.3606 -2.67411 13.7572 -4.16667 10 -4.16667V0V4.16667C11.5471 4.16667 13.0308 4.78125 14.1248 5.87521L17.0711 2.92893ZM1.53846 10H5.70513C5.70513 8.86093 6.15762 7.76851 6.96307 6.96307L4.01679 4.01679L1.07051 1.07051C-1.29774 3.43876 -2.6282 6.65079 -2.6282 10H1.53846ZM4.01679 4.01679L6.96307 6.96307C7.76851 6.15762 8.86093 5.70513 10 5.70513V1.53846V-2.62821C6.65079 -2.62821 3.43876 -1.29774 1.07051 1.07051L4.01679 4.01679ZM10 0V-4.16667C6.24277 -4.16667 2.63942 -2.67411 -0.0173442 -0.0173471L2.92893 2.92893L5.87521 5.87521C6.96917 4.78125 8.4529 4.16667 10 4.16667V0ZM2.92893 2.92893L-0.0173442 -0.0173471C-2.67411 2.63942 -4.16666 6.24276 -4.16666 10H2.97336e-06H4.16667C4.16667 8.4529 4.78125 6.96917 5.87521 5.87521L2.92893 2.92893ZM4.92923 16.7738L7.42316 13.436C6.88935 13.0371 6.45606 12.5191 6.15779 11.9233L2.43186 13.7884L-1.29407 15.6535C-0.41499 17.4096 0.862044 18.9362 2.43531 20.1117L4.92923 16.7738ZM2.43186 13.7884L6.15779 11.9233C5.85952 11.3274 5.70452 10.6701 5.70513 10.0038L1.53846 10L-2.6282 9.99619C-2.62999 11.9601 -2.17315 13.8973 -1.29407 15.6535L2.43186 13.7884ZM2.97336e-06 10L-4.16666 9.99678C-4.16836 12.1992 -3.65596 14.3717 -2.67024 16.3412L1.05582 14.4764L4.78188 12.6116C4.37663 11.8018 4.16597 10.9087 4.16667 10.0032L2.97336e-06 10ZM1.05582 14.4764L-2.67024 16.3412C-1.68452 18.3108 -0.252695 20.023 1.51129 21.3418L4.00616 18.0046L6.50102 14.6674C5.7758 14.1253 5.18714 13.4213 4.78188 12.6116L1.05582 14.4764ZM4.00616 18.0046L7.33949 20.5046L8.26257 19.2738L4.92923 16.7738L1.5959 14.2738L0.672823 15.5046L4.00616 18.0046ZM7.68769 25.0046L11.8535 24.9176C11.7957 22.1516 11.2242 19.4204 10.1681 16.8633L6.31692 18.4538L2.46579 20.0444C3.12759 21.6468 3.48573 23.3583 3.52193 25.0916L7.68769 25.0046ZM4.89539 19.04L1.04463 20.6315C1.63219 22.0531 1.95274 23.5784 1.98501 25.1239L6.15077 25.0369L10.3165 24.9499C10.2626 22.3693 9.72781 19.8238 8.74614 17.4485L4.89539 19.04ZM12.4077 24.8585L10.5446 21.1315C10.3755 21.2161 10.189 21.2601 10 21.2601V25.4267V29.5934C11.4825 29.5934 12.9447 29.2483 14.2708 28.5854L12.4077 24.8585ZM10 25.4267V21.2601C9.81095 21.2601 9.6245 21.2161 9.4554 21.1315L7.59231 24.8585L5.72921 28.5854C7.05529 29.2483 8.51747 29.5934 10 29.5934V25.4267ZM6.90462 26.2354L5.04165 29.9624C6.58123 30.7319 8.2788 31.1326 10 31.1326V26.9659V22.7992C9.57219 22.7992 9.15025 22.6997 8.76758 22.5084L6.90462 26.2354ZM10 26.9659V31.1326C11.7212 31.1326 13.4188 30.7319 14.9583 29.9624L13.0954 26.2354L11.2324 22.5084C10.8497 22.6997 10.4278 22.7992 10 22.7992V26.9659ZM13.6846 18.4538L9.83384 16.8624C8.77686 19.42 8.2047 22.1518 8.14656 24.9186L12.3123 25.0061L16.4781 25.0937C16.5145 23.3599 16.873 21.648 17.5354 20.0453L13.6846 18.4538ZM12.3123 25.0061L12.229 29.172L13.7675 29.2027L13.8508 25.0369L13.9341 20.8711L12.3956 20.8403L12.3123 25.0061ZM13.8508 25.0369L18.0166 25.1208C18.0477 23.5778 18.3676 22.0551 18.9554 20.633L15.1046 19.0415L11.2539 17.4501C10.2724 19.8249 9.73696 22.3698 9.68495 24.953L13.8508 25.0369ZM15.1046 19.0415L16.698 15.1916L15.278 14.6039L13.6846 18.4538L12.0912 22.3038L13.5112 22.8915L15.1046 19.0415ZM13.0954 26.2354L14.9674 29.9579C15.8687 29.5046 16.629 28.8136 17.1662 27.9596L13.6392 25.7411L10.1123 23.5227C10.3837 23.0911 10.768 22.7419 11.2234 22.5129L13.0954 26.2354ZM13.6392 25.7411L17.1662 27.9596C17.7034 27.1056 17.9969 26.1211 18.0152 25.1124L13.8492 25.0369L9.68325 24.9614C9.69248 24.4517 9.84083 23.9542 10.1123 23.5227L13.6392 25.7411ZM13.8492 25.0369L13.9325 20.8711L12.3941 20.8403L12.3108 25.0061L12.2274 29.172L13.7659 29.2027L13.8492 25.0369ZM12.3108 25.0061L16.4753 25.1379C16.4521 25.8739 16.226 26.5891 15.822 27.2047L12.3384 24.9186L8.8549 22.6326C8.41668 23.3003 8.17145 24.0761 8.14619 24.8743L12.3108 25.0061ZM12.3384 24.9186L15.822 27.2047C15.4179 27.8205 14.8516 28.3125 14.1859 28.6266L12.4077 24.8585L10.6295 21.0903C9.90736 21.4311 9.29319 21.9647 8.8549 22.6326L12.3384 24.9186ZM6.15077 25.0369L1.98479 25.1124C2.00306 26.1211 2.29664 27.1056 2.83381 27.9596L6.36076 25.7411L9.88772 23.5227C10.1592 23.9542 10.3075 24.4517 10.3168 24.9614L6.15077 25.0369ZM6.36076 25.7411L2.83381 27.9596C3.37099 28.8136 4.13133 29.5046 5.03264 29.9579L6.90462 26.2354L8.77659 22.5129C9.23204 22.7419 9.61626 23.0911 9.88772 23.5227L6.36076 25.7411ZM7.59231 24.8585L5.7769 28.6088C5.12311 28.2924 4.56793 27.8038 4.17098 27.1955L7.66029 24.9183L11.1496 22.6411C10.719 21.9813 10.1169 21.4513 9.40772 21.1081L7.59231 24.8585ZM7.66029 24.9183L4.17098 27.1955C3.77402 26.5873 3.55028 25.8824 3.5238 25.1565L7.68769 25.0046L11.8516 24.8527C11.8229 24.0654 11.5802 23.3008 11.1496 22.6411L7.66029 24.9183ZM4.00616 18.0061L1.50951 21.342C1.62743 21.4303 1.71477 21.4961 1.78031 21.5461C1.84809 21.5978 1.87833 21.6217 1.88686 21.6285C1.89002 21.6311 1.88117 21.624 1.86419 21.6097C1.84768 21.5957 1.8149 21.5675 1.77215 21.528C1.68751 21.4497 1.52563 21.2922 1.34971 21.0635L4.65231 18.5231L7.95491 15.9826C7.59538 15.5152 7.19622 15.2044 7.10391 15.1303C6.94612 15.0036 6.74159 14.849 6.5028 14.6703L4.00616 18.0061ZM5.86769 17.58L9.15971 15.0258C8.52114 14.2028 7.58114 13.5552 7.43957 13.4483L4.92923 16.7738L2.41889 20.0994C2.47257 20.1399 2.52662 20.1805 2.57064 20.2136C2.61718 20.2486 2.6559 20.2778 2.69148 20.3048C2.76461 20.3604 2.80316 20.391 2.82443 20.4084C2.84538 20.4256 2.82747 20.4122 2.7883 20.3742C2.74878 20.3359 2.66978 20.2554 2.57567 20.1341L5.86769 17.58ZM4.92923 16.7738L1.5944 14.2758L0.671324 15.5081L4.00616 18.0061L7.34099 20.5042L8.26406 19.2718L4.92923 16.7738ZM6.31692 18.4538L10.1663 16.8591C10.0968 16.6914 9.77789 15.8266 9.16599 15.0339L5.86769 17.58L2.5694 20.126C2.44494 19.9648 2.38048 19.8359 2.36698 19.808C2.36188 19.7974 2.36585 19.8048 2.38421 19.848C2.39315 19.869 2.40372 19.8943 2.41797 19.9287C2.42509 19.9459 2.43236 19.9635 2.44078 19.9839C2.44891 20.0036 2.45809 20.0258 2.46752 20.0486L6.31692 18.4538ZM4.65231 18.5231L1.33801 21.0483C1.30902 21.0102 1.26959 20.9568 1.22508 20.8914C1.18023 20.8254 1.13888 20.76 1.10112 20.6961C1.0289 20.5738 0.983656 20.4803 0.968555 20.4485C0.953961 20.4178 0.951604 20.4108 0.968839 20.4509C0.984701 20.4878 1.0088 20.545 1.04606 20.6349L4.89539 19.04L8.74471 17.4451C8.6664 17.2561 8.41933 16.5921 7.96661 15.9979L4.65231 18.5231ZM15.0708 16.7754L12.577 13.4374C12.3986 13.5707 11.4851 14.1996 10.8474 15.0167L14.1323 17.58L17.4172 20.1433C17.3259 20.2603 17.2499 20.3376 17.2123 20.3741C17.1748 20.4105 17.1579 20.4231 17.1779 20.4067C17.1979 20.3902 17.2352 20.3606 17.3046 20.308C17.3383 20.2825 17.3756 20.2544 17.4198 20.2214C17.4417 20.205 17.4643 20.1882 17.4887 20.17C17.5126 20.1522 17.5384 20.1329 17.5645 20.1134L15.0708 16.7754ZM14.1323 17.58L11.578 20.8719L12.7934 21.815L15.3477 18.5231L17.902 15.2312L16.6866 14.2881L14.1323 17.58ZM15.3477 18.5231L18.6503 21.0635C18.4798 21.2851 18.3229 21.4394 18.2367 21.5195C18.194 21.5593 18.161 21.5878 18.144 21.6023C18.1266 21.6171 18.1172 21.6246 18.1198 21.6225C18.1271 21.6166 18.1564 21.5933 18.2233 21.5422C18.2879 21.4928 18.3746 21.4273 18.4922 21.3392L15.9938 18.0046L13.4955 14.67C13.2542 14.8508 13.0482 15.0069 12.8883 15.1359C12.7875 15.2172 12.3986 15.523 12.0451 15.9826L15.3477 18.5231ZM15.9938 18.0046L19.3257 15.5026L18.4026 14.2734L15.0708 16.7754L11.7389 19.2774L12.662 20.5066L15.9938 18.0046ZM15.1046 19.0415L18.9539 20.6365C18.9917 20.5454 19.0159 20.4877 19.032 20.4502C19.0496 20.4092 19.0468 20.4173 19.0314 20.4497C19.0157 20.4827 18.9675 20.5825 18.8899 20.7125C18.8492 20.7807 18.804 20.8513 18.7543 20.9229C18.7048 20.9943 18.6602 21.0533 18.6256 21.0973L15.3492 18.5231L12.0729 15.9488C11.5831 16.5722 11.319 17.2927 11.2553 17.4466L15.1046 19.0415ZM15.3492 18.5231L17.9036 15.2312L16.6882 14.2881L14.1338 17.58L11.5795 20.8719L12.7949 21.815L15.3492 18.5231ZM14.1338 17.58L10.8449 15.0219C10.2242 15.8199 9.90317 16.6913 9.83368 16.8591L13.6831 18.4538L17.5325 20.0486C17.5419 20.0258 17.5511 20.0036 17.5592 19.984C17.5676 19.9636 17.5748 19.9461 17.5819 19.929C17.5961 19.8947 17.6066 19.8697 17.6154 19.849C17.6335 19.8065 17.637 19.8002 17.6313 19.812C17.6163 19.8428 17.55 19.9746 17.4228 20.1381L14.1338 17.58ZM13.6831 18.4538L12.0912 22.3044L13.5127 22.8921L15.1046 19.0415L16.6965 15.191L15.275 14.6033L13.6831 18.4538Z" fill="#EDBA29" mask="url(#path-1-inside-1_356_261)"/>
<path d="M13.8466 20C11.3776 20.9878 8.62326 20.9878 6.1543 20H13.8466Z" fill="#EDBA29"/>
<path d="M13.8466 20C11.3776 20.9878 8.62326 20.9878 6.1543 20" stroke="#EDBA29" stroke-width="2"/>
<path d="M8.46139 16.1529V9.61448C8.46139 9.23414 8.3486 8.86233 8.13729 8.54608C7.92598 8.22983 7.62564 7.98335 7.27424 7.83779C6.92285 7.69224 6.53618 7.65416 6.16314 7.72836C5.7901 7.80256 5.44744 7.98572 5.17849 8.25466C4.90954 8.52361 4.72639 8.86627 4.65219 9.23931C4.57798 9.61235 4.61607 9.99902 4.76162 10.3504C4.90717 10.7018 5.15366 11.0022 5.46991 11.2135C5.78616 11.4248 6.15796 11.5376 6.53831 11.5376H13.4614C13.8417 11.5376 14.2135 11.4248 14.5298 11.2135C14.846 11.0022 15.0925 10.7018 15.2381 10.3504C15.3836 9.99902 15.4217 9.61235 15.3475 9.23931C15.2733 8.86627 15.0902 8.52361 14.8212 8.25466C14.5523 7.98572 14.2096 7.80256 13.8366 7.72836C13.4635 7.65416 13.0769 7.69224 12.7255 7.83779C12.3741 7.98335 12.0737 8.22983 11.8624 8.54608C11.6511 8.86233 11.5383 9.23414 11.5383 9.61448V16.1529" fill="#EDBA29"/>
<path d="M8.46139 16.1529V9.61448C8.46139 9.23414 8.3486 8.86233 8.13729 8.54608C7.92598 8.22983 7.62564 7.98335 7.27424 7.83779C6.92285 7.69224 6.53618 7.65416 6.16314 7.72836C5.7901 7.80256 5.44744 7.98572 5.17849 8.25466C4.90954 8.52361 4.72639 8.86627 4.65219 9.23931C4.57798 9.61235 4.61607 9.99902 4.76162 10.3504C4.90717 10.7018 5.15366 11.0022 5.46991 11.2135C5.78616 11.4248 6.15796 11.5376 6.53831 11.5376H13.4614C13.8417 11.5376 14.2135 11.4248 14.5298 11.2135C14.846 11.0022 15.0925 10.7018 15.2381 10.3504C15.3836 9.99902 15.4217 9.61235 15.3475 9.23931C15.2733 8.86627 15.0902 8.52361 14.8212 8.25466C14.5523 7.98572 14.2096 7.80256 13.8366 7.72836C13.4635 7.65416 13.0769 7.69224 12.7255 7.83779C12.3741 7.98335 12.0737 8.22983 11.8624 8.54608C11.6511 8.86233 11.5383 9.23414 11.5383 9.61448V16.1529" stroke="#EDBA29" stroke-width="2" stroke-linecap="round"/>
</svg>
